<svg id="lg-compress" viewBox="0 0 860 340" xmlns="http://www.w3.org/2000/svg" role="img" aria-label="Tasks arranged along a compressibility axis: model capability fades where short deterministic generators exist; symbolic algorithms cover exactly that region.">
  <style>
    #lg-compress text     { font-size: 12px; fill: var(--text, #1c2230); }
    #lg-compress .mono    { font-family: var(--font-mono, ui-monospace, SFMono-Regular, Menlo, monospace); }
    #lg-compress .hdr     { font-size: 10.5px; letter-spacing: 0.08em; fill: var(--text-muted, #5b6472); }
    #lg-compress .note    { font-size: 10.5px; fill: var(--text-muted, #5b6472); }
    #lg-compress .axis    { stroke: var(--text-muted, #5b6472); stroke-width: 1.3; fill: none; }
    #lg-compress .mkf-ax  { fill: var(--text-muted, #5b6472); }
    #lg-compress .cliff   { stroke: var(--border, #e6e8ee); stroke-width: 1.3; stroke-dasharray: 4 5; }
    #lg-compress .chip-m  { fill: var(--dg-model, #5b4be0); fill-opacity: 0.07; stroke: var(--dg-model, #5b4be0); stroke-opacity: 0.55; stroke-width: 1.2; }
    #lg-compress .chip-s  { fill: var(--dg-sym, #3b6fe0); fill-opacity: 0.07; stroke: var(--dg-sym, #3b6fe0); stroke-opacity: 0.55; stroke-width: 1.2; }
    #lg-compress .ct      { font-size: 11.5px; }
    #lg-compress .lab-m   { font-size: 12px; fill: var(--dg-model, #5b4be0); }
    #lg-compress .lab-s   { font-size: 12px; fill: var(--dg-sym, #3b6fe0); }
    #lg-compress .bar-m   { fill: var(--dg-model, #5b4be0); }
    #lg-compress .bar-s   { fill: var(--dg-sym, #3b6fe0); }
  </style>
  <defs>
    <marker id="mk-ax" markerWidth="8" markerHeight="8" refX="7" refY="4" orient="auto">
      <path class="mkf-ax" d="M0,0 L8,4 L0,8 Z"/>
    </marker>
  </defs>

  <line class="cliff" x1="470" y1="42" x2="470" y2="308"/>

  <!-- Interpolation domain -->
  <text class="mono hdr" x="230" y="46" text-anchor="middle">SCALE WINS</text>
  <g>
    <rect class="chip-m" x="100" y="60" width="96"  height="26" rx="13"/>
    <text class="mono ct" x="148" y="77" text-anchor="middle">translation</text>
    <rect class="chip-m" x="212" y="60" width="112" height="26" rx="13"/>
    <text class="mono ct" x="268" y="77" text-anchor="middle">summarization</text>
    <rect class="chip-m" x="100" y="96" width="112" height="26" rx="13"/>
    <text class="mono ct" x="156" y="113" text-anchor="middle">style transfer</text>
    <rect class="chip-m" x="228" y="96" width="158" height="26" rx="13"/>
    <text class="mono ct" x="307" y="113" text-anchor="middle">idiomatic completion</text>
  </g>

  <!-- Deterministic domain -->
  <text class="mono hdr" x="630" y="46" text-anchor="middle">SCALE DOESN'T CLOSE IT</text>
  <g>
    <rect class="chip-s" x="500" y="60" width="90"  height="26" rx="13"/>
    <text class="mono ct" x="545" y="77" text-anchor="middle">arithmetic</text>
    <rect class="chip-s" x="606" y="60" width="110" height="26" rx="13"/>
    <text class="mono ct" x="661" y="77" text-anchor="middle">type checking</text>
    <rect class="chip-s" x="500" y="96" width="140" height="26" rx="13"/>
    <text class="mono ct" x="570" y="113" text-anchor="middle">constraint solving</text>
    <rect class="chip-s" x="656" y="96" width="118" height="26" rx="13"/>
    <text class="mono ct" x="715" y="113" text-anchor="middle">query planning</text>
  </g>

  <!-- Axis -->
  <line class="axis" x1="70" y1="160" x2="784" y2="160" marker-end="url(#mk-ax)"/>
  <text class="mono note" x="70"  y="184" text-anchor="start">low compressibility — no short generator exists</text>
  <text class="mono note" x="790" y="184" text-anchor="end">high — a short deterministic generator exists</text>

  <!-- Model capability -->
  <text class="mono lab-m" x="70" y="239" text-anchor="start">model</text>
  <rect class="bar-m" x="170" y="228" width="300" height="10" rx="5" opacity="0.8"/>
  <rect class="bar-m" x="482" y="228" width="34" height="10" rx="5" opacity="0.55"/>
  <rect class="bar-m" x="528" y="228" width="22" height="10" rx="5" opacity="0.4"/>
  <rect class="bar-m" x="562" y="228" width="13" height="10" rx="5" opacity="0.3"/>
  <rect class="bar-m" x="587" y="228" width="8"  height="10" rx="4" opacity="0.22"/>
  <rect class="bar-m" x="607" y="228" width="5"  height="10" rx="2.5" opacity="0.15"/>
  <text class="mono note" x="482" y="260" text-anchor="start">approximation, not execution</text>

  <!-- Symbolic capability -->
  <text class="mono lab-s" x="70" y="294" text-anchor="start">symbolic</text>
  <rect class="bar-s" x="470" y="283" width="320" height="10" rx="5" opacity="0.8"/>
  <text class="mono note" x="170" y="292" text-anchor="start">no algorithm to write</text>
</svg>
