<svg id="lg-hero" viewBox="0 0 1200 630" xmlns="http://www.w3.org/2000/svg" role="img" aria-label="A stochastic field of dots flows through deterministic gates into a code artifact, which a human lens reviews and signs off.">
  <style>
    #lg-hero .dot    { fill: var(--dg-model, #5b4be0); }
    #lg-hero .flow   { stroke: var(--dg-model, #5b4be0); fill: none; stroke-width: 1.5; }
    #lg-hero .gate   { stroke: var(--dg-sym, #3b6fe0); fill: var(--surface, #ffffff); stroke-width: 2; }
    #lg-hero .pass   { stroke: var(--dg-ok, #2f8f4e); fill: none; stroke-width: 2.5; stroke-linecap: round; stroke-linejoin: round; }
    #lg-hero .post   { stroke: var(--dg-sym, #3b6fe0); fill: none; stroke-width: 1.5; }
    #lg-hero .card   { fill: var(--surface, #ffffff); stroke: var(--border, #e6e8ee); stroke-width: 1.5; }
    #lg-hero .bar-m  { fill: var(--dg-model, #5b4be0); }
    #lg-hero .bar-s  { fill: var(--border, #e6e8ee); }
    #lg-hero .scan   { stroke: var(--dg-human, #b26a00); fill: none; stroke-width: 1.3; }
    #lg-hero .lens   { stroke: var(--dg-human, #b26a00); fill: none; }
    #lg-hero .pupil  { fill: var(--dg-human, #b26a00); opacity: 0.85; }
    #lg-hero .iris   { fill: var(--dg-human, #b26a00); opacity: 0.12; }
    #lg-hero .sig    { stroke: var(--dg-human, #b26a00); fill: none; stroke-width: 2; stroke-linecap: round; }
    #lg-hero .base   { stroke: var(--border, #e6e8ee); stroke-width: 1.5; }
  </style>

  <!-- Stochastic field: the model -->
  <g>
    <circle class="dot" cx="150" cy="300" r="4"   opacity="0.75"/>
    <circle class="dot" cx="170" cy="270" r="3"   opacity="0.7"/>
    <circle class="dot" cx="185" cy="320" r="5"   opacity="0.8"/>
    <circle class="dot" cx="200" cy="290" r="4"   opacity="0.75"/>
    <circle class="dot" cx="215" cy="340" r="3"   opacity="0.65"/>
    <circle class="dot" cx="230" cy="300" r="5"   opacity="0.8"/>
    <circle class="dot" cx="160" cy="350" r="2.5" opacity="0.55"/>
    <circle class="dot" cx="140" cy="260" r="2.5" opacity="0.5"/>
    <circle class="dot" cx="250" cy="270" r="4"   opacity="0.7"/>
    <circle class="dot" cx="245" cy="330" r="3.5" opacity="0.65"/>
    <circle class="dot" cx="265" cy="310" r="2.5" opacity="0.6"/>
    <circle class="dot" cx="190" cy="240" r="3"   opacity="0.55"/>
    <circle class="dot" cx="220" cy="255" r="2.5" opacity="0.55"/>
    <circle class="dot" cx="175" cy="380" r="2.5" opacity="0.5"/>
    <circle class="dot" cx="205" cy="395" r="2"   opacity="0.45"/>
    <circle class="dot" cx="240" cy="375" r="3"   opacity="0.5"/>
    <circle class="dot" cx="270" cy="355" r="2"   opacity="0.45"/>
    <circle class="dot" cx="130" cy="320" r="3"   opacity="0.5"/>
    <circle class="dot" cx="120" cy="290" r="2"   opacity="0.4"/>
    <circle class="dot" cx="110" cy="340" r="2"   opacity="0.35"/>
    <circle class="dot" cx="285" cy="290" r="3"   opacity="0.55"/>
    <circle class="dot" cx="300" cy="320" r="2.5" opacity="0.5"/>
    <circle class="dot" cx="160" cy="225" r="2"   opacity="0.35"/>
    <circle class="dot" cx="135" cy="235" r="2"   opacity="0.3"/>
    <circle class="dot" cx="255" cy="235" r="2.5" opacity="0.4"/>
    <circle class="dot" cx="280" cy="250" r="2"   opacity="0.4"/>
    <circle class="dot" cx="300" cy="270" r="2"   opacity="0.4"/>
    <circle class="dot" cx="105" cy="270" r="2"   opacity="0.3"/>
    <circle class="dot" cx="95"  cy="310" r="1.8" opacity="0.25"/>
    <circle class="dot" cx="315" cy="300" r="2"   opacity="0.4"/>
    <circle class="dot" cx="330" cy="330" r="1.8" opacity="0.3"/>
    <circle class="dot" cx="185" cy="415" r="1.8" opacity="0.3"/>
    <circle class="dot" cx="150" cy="395" r="2"   opacity="0.3"/>
    <circle class="dot" cx="225" cy="420" r="1.6" opacity="0.25"/>
    <circle class="dot" cx="320" cy="255" r="1.6" opacity="0.3"/>
    <circle class="dot" cx="345" cy="295" r="1.6" opacity="0.25"/>
    <circle class="dot" cx="120" cy="375" r="1.6" opacity="0.22"/>
    <circle class="dot" cx="260" cy="400" r="1.8" opacity="0.28"/>
    <circle class="dot" cx="90"  cy="255" r="1.5" opacity="0.2"/>
    <circle class="dot" cx="350" cy="340" r="1.5" opacity="0.2"/>
    <circle class="dot" cx="365" cy="310" r="1.4" opacity="0.18"/>
    <circle class="dot" cx="200" cy="205" r="1.6" opacity="0.25"/>
    <circle class="dot" cx="240" cy="200" r="1.4" opacity="0.2"/>
    <circle class="dot" cx="165" cy="195" r="1.5" opacity="0.2"/>
    <circle class="dot" cx="290" cy="225" r="1.6" opacity="0.28"/>
    <circle class="dot" cx="310" cy="375" r="1.5" opacity="0.22"/>
    <circle class="dot" cx="75"  cy="290" r="1.3" opacity="0.15"/>
    <circle class="dot" cx="82"  cy="330" r="1.3" opacity="0.14"/>
  </g>

  <!-- Flow: proposals leave the field -->
  <path class="flow" d="M305,272 C 355,255 395,248 429,252" opacity="0.55"/>
  <path class="flow" d="M312,315 C 355,313 395,314 429,315" opacity="0.6"/>
  <path class="flow" d="M305,358 C 355,375 395,382 429,378" opacity="0.55"/>

  <!-- Deterministic gates: checkpoints -->
  <g>
    <path class="gate" d="M450,235 L467,252 L450,269 L433,252 Z"/>
    <path class="pass" d="M443,253 l4.5,5 9,-10"/>
    <path class="gate" d="M450,298 L467,315 L450,332 L433,315 Z"/>
    <path class="pass" d="M443,316 l4.5,5 9,-10"/>
    <path class="gate" d="M450,361 L467,378 L450,395 L433,378 Z"/>
    <path class="pass" d="M443,379 l4.5,5 9,-10"/>
  </g>

  <!-- Verified flow into the artifact -->
  <path class="post" d="M467,252 C 500,252 522,236 558,228" opacity="0.6"/>
  <path class="post" d="M467,315 C 500,315 522,315 558,315" opacity="0.6"/>
  <path class="post" d="M467,378 C 500,378 522,394 558,402" opacity="0.6"/>

  <!-- The artifact -->
  <rect class="card" x="560" y="165" width="240" height="300" rx="18"/>
  <g>
    <rect class="bar-m" x="585" y="196" width="120" height="10" rx="5" opacity="0.9"/>
    <rect class="bar-s" x="585" y="222" width="170" height="10" rx="5"/>
    <rect class="bar-s" x="601" y="248" width="140" height="10" rx="5"/>
    <rect class="bar-m" x="601" y="274" width="95"  height="10" rx="5" opacity="0.75"/>
    <rect class="bar-s" x="617" y="300" width="120" height="10" rx="5"/>
    <rect class="bar-m" x="601" y="326" width="150" height="10" rx="5" opacity="0.9"/>
    <rect class="bar-s" x="585" y="352" width="80"  height="10" rx="5"/>
    <rect class="bar-m" x="585" y="378" width="140" height="10" rx="5" opacity="0.75"/>
    <rect class="bar-s" x="601" y="404" width="110" height="10" rx="5"/>
    <rect class="bar-s" x="585" y="430" width="60"  height="10" rx="5"/>
  </g>

  <!-- Human review -->
  <path class="scan" d="M802,240 C 838,244 866,258 897,272" opacity="0.5"/>
  <path class="scan" d="M802,315 C 838,312 866,300 896,290" opacity="0.5"/>
  <path class="scan" d="M802,382 C 840,378 868,330 899,306" opacity="0.5"/>

  <circle class="lens" cx="968" cy="288" r="70" stroke-width="2.5"/>
  <circle class="iris" cx="968" cy="288" r="30"/>
  <circle class="lens" cx="968" cy="288" r="30" stroke-width="1.5"/>
  <circle class="pupil" cx="968" cy="288" r="12"/>

  <!-- Sign-off -->
  <path class="sig" d="M886,470 C 900,442 916,486 934,462 C 946,446 958,470 976,460 C 992,451 1006,468 1022,458 C 1032,452 1042,450 1052,452" opacity="0.9"/>
  <line class="base" x1="880" y1="492" x2="1060" y2="492"/>
  <path class="pass" d="M1072,484 l5,6 10,-12"/>
</svg>
